<svg xmlns="http://www.w3.org/2000/svg" width="276.154" height="228.623" viewBox="0 0 276.154 228.623">
  <g id="undraw_map_1r69" transform="translate(0.254)">
    <ellipse id="Ellipse_1" data-name="Ellipse 1" cx="5.974" cy="14.503" rx="5.974" ry="14.503" transform="translate(245.095 208.113) rotate(-45)" fill="#00b0ff" opacity="0.1"/>
    <ellipse id="Ellipse_2" data-name="Ellipse 2" cx="3.207" cy="4.199" rx="3.207" ry="4.199" transform="translate(257.393 206.693)" fill="#3f3d56"/>
    <ellipse id="Ellipse_3" data-name="Ellipse 3" cx="3.207" cy="4.199" rx="3.207" ry="4.199" transform="translate(257.393 201.562)" fill="#3f3d56"/>
    <ellipse id="Ellipse_4" data-name="Ellipse 4" cx="3.207" cy="4.199" rx="3.207" ry="4.199" transform="translate(257.393 196.431)" fill="#3f3d56"/>
    <ellipse id="Ellipse_5" data-name="Ellipse 5" cx="3.207" cy="4.199" rx="3.207" ry="4.199" transform="translate(257.393 191.3)" fill="#3f3d56"/>
    <ellipse id="Ellipse_6" data-name="Ellipse 6" cx="3.207" cy="4.199" rx="3.207" ry="4.199" transform="translate(257.393 186.169)" fill="#3f3d56"/>
    <ellipse id="Ellipse_7" data-name="Ellipse 7" cx="3.207" cy="4.199" rx="3.207" ry="4.199" transform="translate(257.393 181.038)" fill="#3f3d56"/>
    <ellipse id="Ellipse_8" data-name="Ellipse 8" cx="3.207" cy="4.199" rx="3.207" ry="4.199" transform="translate(257.393 175.907)" fill="#3f3d56"/>
    <path id="Path_1" data-name="Path 1" d="M986.515,499.977a15.289,15.289,0,0,0,1.2-1.757l-8.427-1.384,9.115.066a15.4,15.4,0,0,0,.3-12.172l-12.226,6.344,11.269-8.29a15.363,15.363,0,1,0-25.372,17.192,15.286,15.286,0,0,0-1.751,2.8l10.938,5.678L959.9,504.54a15.375,15.375,0,0,0,2.477,14.425,15.36,15.36,0,1,0,24.146,0,15.363,15.363,0,0,0,0-18.994Z" transform="translate(-713.911 -354.985)" fill="#00b0ff"/>
    <path id="Path_2" data-name="Path 2" d="M959.1,589.579a15.289,15.289,0,0,0,3.287,9.5,15.36,15.36,0,1,0,24.146,0C988.592,596.464,959.1,587.855,959.1,589.579Z" transform="translate(-713.929 -435.09)" opacity="0.1"/>
    <path id="Path_3" data-name="Path 3" d="M300.767,0V215.166L227.85,205l-88.639,18.083-.714.146L67.97,203.81V16.735L141.186,0l80.089,16.735,3.045-.643Z" transform="translate(-47.836)" fill="#444053"/>
    <path id="Path_4" data-name="Path 4" d="M317.262,39.32V231.836l-65.24-9.091-79.309,16.179-.64.128-63.1-17.378V54.292L174.482,39.32l71.656,14.972,2.725-.574Z" transform="translate(-76.583 -27.57)" fill="#fff"/>
    <path id="Path_5" data-name="Path 5" d="M395,205,306.36,223.088,308.335,0l80.089,16.735,3.045-.643Z" transform="translate(-214.985)" opacity="0.1"/>
    <g id="Group_1" data-name="Group 1" transform="translate(26.111 41.24)" opacity="0.3">
      <path id="Path_6" data-name="Path 6" d="M573.35,138l.036,62.607h26v-25.7h44.527l5.23-6.706" transform="translate(-428.299 -138)" fill="none" stroke="#444053" stroke-miterlimit="10" stroke-width="3"/>
      <path id="Path_7" data-name="Path 7" d="M88.97,198.19h96.675l5.977-2.69h2.391v60.366H235.85l1.793,5.379V288.44h32.275v33.62" transform="translate(-88.671 -178.317)" fill="none" stroke="#444053" stroke-miterlimit="10" stroke-width="3"/>
      <line id="Line_1" data-name="Line 1" y1="66.193" transform="translate(118.111 77.549)" fill="none" stroke="#444053" stroke-miterlimit="10" stroke-width="3"/>
      <line id="Line_2" data-name="Line 2" x1="102.733" transform="translate(118.111 126.009)" fill="none" stroke="#444053" stroke-miterlimit="10" stroke-width="3"/>
      <line id="Line_3" data-name="Line 3" y2="143.743" transform="translate(195.113)" fill="none" stroke="#444053" stroke-miterlimit="10" stroke-width="3"/>
      <line id="Line_4" data-name="Line 4" x2="220.843" transform="translate(0 113.303)" fill="none" stroke="#444053" stroke-miterlimit="10" stroke-width="3"/>
      <line id="Line_5" data-name="Line 5" y1="143.743" transform="translate(26.878)" fill="none" stroke="#444053" stroke-miterlimit="10" stroke-width="3"/>
      <line id="Line_6" data-name="Line 6" y2="143.743" transform="translate(78.213)" fill="none" stroke="#444053" stroke-miterlimit="10" stroke-width="3"/>
      <line id="Line_7" data-name="Line 7" x2="170.788" y2="0.598" transform="translate(0.299 36.309)" fill="none" stroke="#444053" stroke-miterlimit="10" stroke-width="3"/>
      <line id="Line_8" data-name="Line 8" y2="143.483" transform="translate(50.005 0.26)" fill="none" stroke="#444053" stroke-miterlimit="10" stroke-width="3"/>
      <path id="Path_8" data-name="Path 8" d="M87.97,370.82h78.213l39.9,43.726" transform="translate(-87.97 -301.244)" fill="none" stroke="#444053" stroke-miterlimit="10" stroke-width="3"/>
      <line id="Line_9" data-name="Line 9" y2="77.549" transform="translate(126.753)" fill="none" stroke="#444053" stroke-miterlimit="10" stroke-width="3"/>
      <line id="Line_10" data-name="Line 10" x2="102.733" transform="translate(118.111 91.439)" fill="none" stroke="#444053" stroke-miterlimit="10" stroke-width="3"/>
    </g>
    <path id="Path_9" data-name="Path 9" d="M515.153,410.8H484.97V397.649l28.539-.149,1.793,5.08Z" transform="translate(-340.219 -278.711)" fill="#00b0ff"/>
    <path id="Path_10" data-name="Path 10" d="M635.31,287.15a16.52,16.52,0,0,0-16.52,16.52c0,9.124,16.52,38.766,16.52,38.766s16.52-29.63,16.52-38.766A16.52,16.52,0,0,0,635.31,287.15Zm0,23.567a7.268,7.268,0,1,1,7.268-7.268,7.268,7.268,0,0,1-7.268,7.268Z" transform="translate(-475.318 -223.198)" fill="#00b0ff"/>
    <path id="Path_11" data-name="Path 11" d="M635.31,287.15a16.52,16.52,0,0,0-16.52,16.52c0,9.124,16.52,38.766,16.52,38.766s16.52-29.63,16.52-38.766A16.52,16.52,0,0,0,635.31,287.15Zm0,23.567a7.268,7.268,0,1,1,7.268-7.268,7.268,7.268,0,0,1-7.268,7.268Z" transform="translate(-475.318 -223.198)" opacity="0.1"/>
    <path id="Path_12" data-name="Path 12" d="M635.31,295.15a16.52,16.52,0,0,0-16.52,16.52c0,9.124,16.52,38.766,16.52,38.766s16.52-29.63,16.52-38.766A16.52,16.52,0,0,0,635.31,295.15Zm0,23.567a7.268,7.268,0,1,1,7.268-7.268,7.268,7.268,0,0,1-7.268,7.268Z" transform="translate(-475.318 -228.807)" fill="#00b0ff"/>
    <ellipse id="Ellipse_9" data-name="Ellipse 9" cx="9.996" cy="4.118" rx="9.996" ry="4.118" transform="translate(141.955 219.347) rotate(-23.3)" fill="#00b0ff" opacity="0.1"/>
    <ellipse id="Ellipse_10" data-name="Ellipse 10" cx="2.211" cy="2.893" rx="2.211" ry="2.893" transform="translate(150.435 214.654)" fill="#3f3d56"/>
    <ellipse id="Ellipse_11" data-name="Ellipse 11" cx="2.211" cy="2.893" rx="2.211" ry="2.893" transform="translate(150.435 211.116)" fill="#3f3d56"/>
    <ellipse id="Ellipse_12" data-name="Ellipse 12" cx="2.211" cy="2.893" rx="2.211" ry="2.893" transform="translate(150.435 207.581)" fill="#3f3d56"/>
    <ellipse id="Ellipse_13" data-name="Ellipse 13" cx="2.211" cy="2.893" rx="2.211" ry="2.893" transform="translate(150.435 204.046)" fill="#3f3d56"/>
    <ellipse id="Ellipse_14" data-name="Ellipse 14" cx="2.211" cy="2.893" rx="2.211" ry="2.893" transform="translate(150.435 200.507)" fill="#3f3d56"/>
    <ellipse id="Ellipse_15" data-name="Ellipse 15" cx="2.211" cy="2.893" rx="2.211" ry="2.893" transform="translate(150.435 196.972)" fill="#3f3d56"/>
    <ellipse id="Ellipse_16" data-name="Ellipse 16" cx="2.211" cy="2.893" rx="2.211" ry="2.893" transform="translate(150.435 193.437)" fill="#3f3d56"/>
    <path id="Path_13" data-name="Path 13" d="M616.481,608.919a10.794,10.794,0,0,1-.825-1.2l5.81-.956-6.276.048a10.621,10.621,0,0,1-.2-8.388l8.427,4.357-7.77-5.714a10.588,10.588,0,1,1,17.485,11.849,10.617,10.617,0,0,1,1.2,1.931l-7.534,3.918,8.039-2.69a10.594,10.594,0,0,1-1.706,9.943,10.588,10.588,0,1,1-16.642,0,10.591,10.591,0,0,1,0-13.092Z" transform="translate(-472.11 -436.793)" fill="#00b0ff"/>
    <path id="Path_14" data-name="Path 14" d="M635.389,670.64a10.543,10.543,0,0,1-2.265,6.548,10.588,10.588,0,1,1-16.642,0C615.062,675.395,635.389,669.463,635.389,670.64Z" transform="translate(-472.11 -491.978)" opacity="0.1"/>
    <ellipse id="Ellipse_17" data-name="Ellipse 17" cx="5.974" cy="14.503" rx="5.974" ry="14.503" transform="translate(-0.254 201.539) rotate(-45)" fill="#00b0ff" opacity="0.1"/>
    <ellipse id="Ellipse_18" data-name="Ellipse 18" cx="3.207" cy="4.199" rx="3.207" ry="4.199" transform="translate(12.044 200.119)" fill="#3f3d56"/>
    <ellipse id="Ellipse_19" data-name="Ellipse 19" cx="3.207" cy="4.199" rx="3.207" ry="4.199" transform="translate(12.044 194.988)" fill="#3f3d56"/>
    <ellipse id="Ellipse_20" data-name="Ellipse 20" cx="3.207" cy="4.199" rx="3.207" ry="4.199" transform="translate(12.044 189.857)" fill="#3f3d56"/>
    <ellipse id="Ellipse_21" data-name="Ellipse 21" cx="3.207" cy="4.199" rx="3.207" ry="4.199" transform="translate(12.044 184.726)" fill="#3f3d56"/>
    <ellipse id="Ellipse_22" data-name="Ellipse 22" cx="3.207" cy="4.199" rx="3.207" ry="4.199" transform="translate(12.044 179.594)" fill="#3f3d56"/>
    <ellipse id="Ellipse_23" data-name="Ellipse 23" cx="3.207" cy="4.199" rx="3.207" ry="4.199" transform="translate(12.044 174.463)" fill="#3f3d56"/>
    <ellipse id="Ellipse_24" data-name="Ellipse 24" cx="3.207" cy="4.199" rx="3.207" ry="4.199" transform="translate(12.044 169.332)" fill="#3f3d56"/>
    <path id="Path_15" data-name="Path 15" d="M165.515,477.977a15.274,15.274,0,0,0,1.2-1.757l-8.427-1.384,9.115.066a15.4,15.4,0,0,0,.3-12.172l-12.226,6.344,11.269-8.29a15.363,15.363,0,1,0-25.372,17.192,15.284,15.284,0,0,0-1.751,2.8l10.938,5.678L138.9,482.54a15.375,15.375,0,0,0,2.477,14.425,15.36,15.36,0,1,0,24.146,0,15.363,15.363,0,0,0,0-18.994Z" transform="translate(-138.26 -339.56)" fill="#00b0ff"/>
    <path id="Path_16" data-name="Path 16" d="M138.1,567.579a15.289,15.289,0,0,0,3.287,9.5,15.36,15.36,0,1,0,24.146,0C167.592,574.464,138.1,565.855,138.1,567.579Z" transform="translate(-138.278 -419.665)" opacity="0.1"/>
  </g>
</svg>
